<?xml version="1.0" encoding="UTF-8" standalone="no"?>
<!-- Generator: Adobe Illustrator 14.0.0, SVG Export Plug-In . SVG Version: 6.00 Build 43363)  -->

<svg
xmlns:dc="http://purl.org/dc/elements/1.1/"
xmlns:cc="http://creativecommons.org/ns#"
xmlns:rdf="http://www.w3.org/1999/02/22-rdf-syntax-ns#"
xmlns:svg="http://www.w3.org/2000/svg"
xmlns="http://www.w3.org/2000/svg"
xmlns:sodipodi="http://sodipodi.sourceforge.net/DTD/sodipodi-0.dtd"
xmlns:inkscape="http://www.inkscape.org/namespaces/inkscape"
version="1.1"
id="Layer_1"
x="0px"
y="0px"
width="1440px"
height="1440px"
viewBox="0 0 1440 1440"
enable-background="new 0 0 1440 1440"
xml:space="preserve"
inkscape:version="0.48.1 "
sodipodi:docname="bird.svg"><metadata
id="metadata771"><rdf:RDF><cc:Work
rdf:about=""><dc:format>image/svg+xml</dc:format><dc:type
rdf:resource="http://purl.org/dc/dcmitype/StillImage" /><dc:title /></cc:Work></rdf:RDF></metadata><defs
id="defs769">






</defs><sodipodi:namedview
pagecolor="#ffffff"
bordercolor="#666666"
borderopacity="1"
objecttolerance="10"
gridtolerance="10"
guidetolerance="10"
inkscape:pageopacity="0"
inkscape:pageshadow="2"
inkscape:window-width="1313"
inkscape:window-height="814"
id="namedview767"
showgrid="false"
inkscape:zoom="0.40416667"
inkscape:cx="731.14318"
inkscape:cy="820.91687"
inkscape:window-x="146"
inkscape:window-y="16"
inkscape:window-maximized="0"
inkscape:current-layer="Layer_1" />

<path
style="fill:#EEE8CD"
inkscape:connector-curvature="0"
id="path201"
d="m 1225.9962,511.52119 130.1385,-88.81728 -185.5936,-54.33396 C 1015.5394,95.995802 699.22027,238.0377 593.49297,497.08809 465.94287,809.32788 100.61345,923.23139 100.61345,923.23139 360.62643,1232.4777 595.13056,1288.326 751.541,1276.0001 c 156.49261,-12.4023 578.8501,-135.427 490.9308,-684.47176 -4.5723,-28.54925 -10.1248,-55.12047 -16.4756,-80.00715 z" /><path
d="m 1170.5411,368.37582 c 22.1515,38.93239 40.975,86.41078 55.4551,143.15124 l 130.1385,-88.81728 -185.5936,-54.33396 z"
id="path205"
inkscape:connector-curvature="0"
style="fill:#000000" /><path
d="m 963.65886,713.14438 c 0,0 -434.13757,-89.51574 -483.91093,152.04353 -49.76749,241.52989 351.05479,381.71119 483.91093,-152.04353 z"
id="path207"
inkscape:connector-curvature="0"
style="fill:#000000" /><path
d="m 1047.2053,361.66111 c 2.8878,25.9021 -10.4477,48.72272 -29.8757,50.98248 -19.49851,2.18345 -37.68222,-17.08025 -40.57002,-42.94126 -2.9641,-25.90211 10.38315,-48.72272 29.88162,-50.98248 19.5044,-2.11302 37.6,17.04503 40.5641,42.94126 z"
id="path209"
inkscape:connector-curvature="0"
style="fill:#000000" />



















</svg>
